<svg width="57" height="57" viewBox="0 0 57 57" fill="none" xmlns="http://www.w3.org/2000/svg">
<path d="M28.5 53.4375C21.8862 53.4375 15.5432 50.8102 10.8665 46.1335C6.18984 41.4568 3.5625 35.1138 3.5625 28.5C3.5625 21.8862 6.18984 15.5432 10.8665 10.8665C15.5432 6.18984 21.8862 3.5625 28.5 3.5625C35.1138 3.5625 41.4568 6.18984 46.1335 10.8665C50.8102 15.5432 53.4375 21.8862 53.4375 28.5C53.4375 35.1138 50.8102 41.4568 46.1335 46.1335C41.4568 50.8102 35.1138 53.4375 28.5 53.4375ZM28.5 57C36.0587 57 43.3078 53.9973 48.6525 48.6525C53.9973 43.3078 57 36.0587 57 28.5C57 20.9413 53.9973 13.6922 48.6525 8.34746C43.3078 3.00267 36.0587 0 28.5 0C20.9413 0 13.6922 3.00267 8.34746 8.34746C3.00267 13.6922 0 20.9413 0 28.5C0 36.0587 3.00267 43.3078 8.34746 48.6525C13.6922 53.9973 20.9413 57 28.5 57Z" fill="white"/>
<path d="M18.7209 20.6126C18.7161 20.7277 18.7348 20.8425 18.7759 20.9501C18.8171 21.0576 18.8798 21.1556 18.9602 21.238C19.0406 21.3204 19.137 21.3855 19.2435 21.4293C19.35 21.4731 19.4644 21.4946 19.5795 21.4926H22.5186C23.0102 21.4926 23.4021 21.09 23.4662 20.6019C23.7868 18.2649 25.3899 16.5621 28.2471 16.5621C30.6909 16.5621 32.9282 17.784 32.9282 20.7231C32.9282 22.9852 31.5958 24.0255 29.4904 25.6073C27.0928 27.3493 25.194 29.3835 25.3294 32.6859L25.3401 33.459C25.3438 33.6927 25.4393 33.9156 25.6059 34.0796C25.7725 34.2435 25.9969 34.3354 26.2307 34.3354H29.1199C29.3561 34.3354 29.5826 34.2415 29.7496 34.0745C29.9167 33.9075 30.0105 33.681 30.0105 33.4447V33.0707C30.0105 30.5128 30.9831 29.7682 33.6086 27.7768C35.7782 26.1274 38.0404 24.2963 38.0404 20.4523C38.0404 15.0694 33.4946 12.4688 28.5178 12.4688C24.0041 12.4688 19.0594 14.5706 18.7209 20.6126ZM24.2677 41.1433C24.2677 43.0421 25.7818 44.4457 27.8659 44.4457C30.0354 44.4457 31.5281 43.0421 31.5281 41.1433C31.5281 39.1768 30.0319 37.7946 27.8623 37.7946C25.7818 37.7946 24.2677 39.1768 24.2677 41.1433Z" fill="white"/>
</svg>
